<?xml version="1.0" encoding="UTF-8" standalone="no"?>
<svg id="svg2" version="1.1" viewBox="0 0 144 126"
   xmlns="http://www.w3.org/2000/svg"
   xmlns:svg="http://www.w3.org/2000/svg">
   <defs id="defs1" />
   <style id="current-color-scheme" type="text/css">.ColorScheme-Text {
            color:#232629;
        }
        .ColorScheme-PositiveText {
            color:#27ae60;
        }
        .ColorScheme-NeutralText {
            color:#f67400;
        }
        .ColorScheme-ButtonFocus {
            color:#3daee9;
        }
        .ColorScheme-ButtonHover {
            color:#93cee9;
        }</style>
   <g id="progress-left" transform="matrix(-1 0 0 -1 36 29)" opacity=".31">
      <path id="path3" class="ColorScheme-PositiveText" d="m31 12h2v13h-2z" fill="currentColor" />
      <path id="path5" class="ColorScheme-PositiveText" d="m33 12h1v13h-1z" fill="currentColor" />
      <path id="path7" d="m34 12h1v13h-1z" fill="none" />
   </g>
   <g id="progress-right" transform="translate(0 -8)" opacity=".31">
      <path id="rect4945-8" class="ColorScheme-PositiveText" d="m31 12h2v13h-2z" fill="currentColor" />
      <path id="path11" class="ColorScheme-PositiveText" d="m33 12h1v13h-1z" fill="currentColor" />
      <path id="path13" d="m34 12h1v13h-1z" fill="none" />
   </g>
   <g id="progress-center" transform="matrix(.96296296 0 0 1 .185185 -.1)" opacity=".31">
      <path id="path16" class="ColorScheme-PositiveText" d="m5 4.1h27v13h-27z" fill="currentColor" />
   </g>
   <g id="progress-top" class="ColorScheme-PositiveText" transform="matrix(1 0 0 -1 0 30)" fill="currentColor" opacity=".61">
      <path id="path19" transform="scale(1,-1)" d="m5-28h26v2h-26z" style="" />
      <path id="path21" transform="scale(1 -1)" d="m5-29h26v1h-26z" style="" />
   </g>
   <g id="progress-topleft" transform="matrix(0,-1.5,-1,0,23,52)" opacity=".61">
      <path id="rect4369-7-5-09-7" d="m32 21h2v1h-2z" fill="none" />
      <path id="path25" class="ColorScheme-PositiveText" d="m32 18h2v3h-2z" fill="currentColor" />
   </g>
   <g id="progress-topright" transform="matrix(1,0,0,-1.5,0,32.5)" opacity=".61">
      <path id="path28" transform="scale(1,-1)" d="m34-21h1v2h-1z" fill="none" />
      <path id="path30" class="ColorScheme-PositiveText" d="m31 19h3v2h-3z" fill="currentColor" />
   </g>
   <g id="progress-bottom" class="ColorScheme-PositiveText" transform="matrix(-1 0 0 1 36 -9)" fill="currentColor" opacity=".31">
      <path id="path33" transform="scale(1 -1)" d="m5-28h26v2h-26z" />
      <path id="path35" transform="scale(1 -1)" d="m5-29h26v1h-26z" />
   </g>
   <g id="progress-bottomleft" transform="matrix(-1 0 0 1 36 -1)" opacity=".31">
      <path id="path38" transform="scale(1 -1)" d="m34-21h1v3h-1z" fill="none" />
      <path id="path40" class="ColorScheme-PositiveText" d="m31 18h2v2h-2z" fill="currentColor" />
      <path id="path42" class="ColorScheme-PositiveText" d="m34 18v3h-3v-1h2v-2z" fill="currentColor" />
   </g>
   <g id="progress-bottomright" transform="matrix(0 1 1 0 13 -14)" opacity=".31">
      <path id="path45" transform="scale(1 -1)" d="m31-22h3v1h-3z" fill="none" />
      <path id="path47" class="ColorScheme-PositiveText" d="m31 18h2v2h-2z" fill="currentColor" />
      <path id="path49" class="ColorScheme-PositiveText" d="m34 18v3h-3v-1h2v-2z" fill="currentColor" />
   </g>
   <g id="north-progress-left" transform="matrix(-1 0 0 1 72 -8)" opacity=".31">
      <path id="path52" class="ColorScheme-PositiveText" d="m31 12h2v13h-2z" fill="currentColor" />
      <path id="path54" class="ColorScheme-PositiveText" d="m33 12h1v13h-1z" fill="currentColor" />
      <path id="path56" d="m34 12h1v13h-1z" fill="none" />
   </g>
   <g id="north-progress-right" transform="matrix(1 0 0 -1 36 29)" opacity=".31">
      <path id="path59" class="ColorScheme-PositiveText" d="m31 12h2v13h-2z" fill="currentColor" />
      <path id="path61" class="ColorScheme-PositiveText" d="m33 12h1v13h-1z" fill="currentColor" />
      <path id="path63" d="m34 12h1v13h-1z" fill="none" />
   </g>
   <g id="north-progress-center" transform="matrix(.96296296 0 0 -1 36.185185 21.1)" opacity=".31">
      <path id="path66" class="ColorScheme-PositiveText" d="m5 4.1h27v13h-27z" fill="currentColor" />
   </g>
   <g id="north-progress-bottom" class="ColorScheme-PositiveText" transform="translate(36 -9)" fill="currentColor" opacity=".61">
      <path id="path69" transform="scale(1,-1)" d="m5-28h26v2h-26z" style="" />
      <path id="path71" transform="scale(1 -1)" d="m5-29h26v1h-26z" style="" />
   </g>
   <g id="north-progress-bottomleft" transform="matrix(0,1.5,-1,0,59,-31)" opacity=".61">
      <path id="path74" d="m32 21h2v1h-2z" fill="none" />
      <path id="path76" class="ColorScheme-PositiveText" d="m32 18h2v3h-2z" fill="currentColor" />
   </g>
   <g id="north-progress-bottomright" transform="matrix(1,0,0,1.5,36,-11.5)" opacity=".61">
      <path id="path79" transform="scale(1,-1)" d="m34-21h1v2h-1z" fill="none" />
      <path id="path81" class="ColorScheme-PositiveText" d="m31 19h3v2h-3z" fill="currentColor" />
   </g>
   <g id="north-progress-top" class="ColorScheme-PositiveText" transform="matrix(-1 0 0 -1 72 30)" fill="currentColor" opacity=".31">
      <path id="path84" transform="scale(1 -1)" d="m5-28h26v2h-26z" />
      <path id="path86" transform="scale(1 -1)" d="m5-29h26v1h-26z" />
   </g>
   <g id="north-progress-topleft" transform="matrix(-1 0 0 -1 72 22)" opacity=".31">
      <path id="path89" transform="scale(1 -1)" d="m34-21h1v3h-1z" fill="none" />
      <path id="path91" class="ColorScheme-PositiveText" d="m31 18h2v2h-2z" fill="currentColor" />
      <path id="path93" class="ColorScheme-PositiveText" d="m34 18v3h-3v-1h2v-2z" fill="currentColor" />
   </g>
   <g id="north-progress-topright" transform="matrix(0 -1 1 0 49 35)" opacity=".31">
      <path id="path96" transform="scale(1 -1)" d="m31-22h3v1h-3z" fill="none" />
      <path id="path98" class="ColorScheme-PositiveText" d="m31 18h2v2h-2z" fill="currentColor" />
      <path id="path100" class="ColorScheme-PositiveText" d="m34 18v3h-3v-1h2v-2z" fill="currentColor" />
   </g>
   <g id="west-progress-left" class="ColorScheme-PositiveText" transform="matrix(-1 0 0 .84615385 107 -5.153847)" fill="currentColor" opacity=".31">
      <path id="rect4945-9-2-4-1" d="m31 12h2v13h-2z" />
      <path id="path104" d="m33 12h1v13h-1z" />
   </g>
   <g id="west-progress-right" class="ColorScheme-PositiveText" transform="matrix(1 0 0 -.84615385 73 26.153845)" fill="currentColor" opacity=".61">
      <path id="path107" d="m31 12h2v13h-2z" style="" />
      <path id="rect4949-5-5-6" d="m33 12h1v13h-1z" style="" />
   </g>
   <g id="west-progress-center" transform="matrix(1.0370294 0 0 -.84615385 70.814663 19.46923)" opacity=".31">
      <path id="path111" class="ColorScheme-PositiveText" d="m5.000183 4.1h27.0002v13h-27.0002z" fill="currentColor" />
   </g>
   <g id="west-progress-bottom" transform="matrix(1.0769152 0 0 1 70.615439 -10)" opacity=".31">
      <path id="path114" transform="matrix(0 1 1 0 0 0)" d="m29 5h1v26.000191h-1z" fill="none" />
      <path id="path116" class="ColorScheme-PositiveText" transform="scale(1 -1)" d="m5-28h26.000191v2h-26.000191z" fill="currentColor" />
      <path id="rect4999-2-9-0" class="ColorScheme-PositiveText" transform="scale(1 -1)" d="m5-29h26.000191v1h-26.000191z" fill="currentColor" />
   </g>
   <g id="west-progress-topright" transform="matrix(0,-1,1.4999983,0,75.500042,36)" opacity=".61">
      <path id="rect4369-7-5-0-5-9-7-0-5-1-0-2-0-3" transform="matrix(0,-1,-1,0,0,0)" d="m-20.999994-35h1.999999v1h-1.999999z" fill="none" />
      <path id="path121" class="ColorScheme-PositiveText" d="m31 18.999994h3v2h-3z" fill="currentColor" />
   </g>
   <g id="west-progress-bottomright" transform="matrix(1.4999983,0,0,1,56.000065,-2)" opacity=".61">
      <path id="path124" class="ColorScheme-PositiveText" d="m31.999994 18h2.000005v3h-2.000005z" fill="currentColor" />
      <path id="path126" transform="matrix(0,1,1,0,0,0)" d="m21 31.999994h1v1.785735h-1z" fill="none" />
   </g>
   <g id="west-progress-top" transform="matrix(-1.0769152 0 0 -1 109.38438 31.000001)" opacity=".31">
      <path id="rect4997-2-6-2-7" class="ColorScheme-PositiveText" transform="scale(1 -1)" d="m4.999818-28h26.000191v2h-26.000191z" fill="currentColor" />
      <path id="path130" class="ColorScheme-PositiveText" transform="scale(1 -1)" d="m4.999818-29h26.000191v1h-26.000191z" fill="currentColor" />
      <path id="path132" transform="matrix(0 1 1 0 0 0)" d="m29.000008 4.999827h1v26.000191h-1z" fill="none" />
   </g>
   <g id="west-progress-topleft" transform="matrix(-1 0 0 -1 107 22.999999)" opacity=".31">
      <path id="rect4369-7-5-0-5-9-7-0-5-1" transform="scale(-1 1)" d="m-34 21h3v1h-3z" fill="none" />
      <path id="rect5003-5-6-8-9-3" class="ColorScheme-PositiveText" d="m30.99999 18h1.999999v2h-1.999999z" fill="currentColor" />
      <path id="path3643-1-0" class="ColorScheme-PositiveText" d="m33.99999 18v3h-3v-1h2l-1e-6 -2z" fill="currentColor" />
   </g>
   <g id="west-progress-bottomleft" transform="matrix(0 1 -1 0 94 -15)" opacity=".31">
      <path id="rect4369-7-5-0-5-9-7-0-5-1-0" transform="scale(1 -1)" d="m34-21h1v3h-1z" fill="none" />
      <path id="rect5003-5-6-8-5-7-4" class="ColorScheme-PositiveText" d="m31 18h2v2h-2z" fill="currentColor" />
      <path id="path141" class="ColorScheme-PositiveText" d="m34 18v3h-3v-1h2v-2z" fill="currentColor" />
   </g>
   <g id="east-progress-right" class="ColorScheme-PositiveText" transform="matrix(1 0 0 .84615385 109 -5.153848)" fill="currentColor" opacity=".31">
      <path id="path144" d="m31 12h2v12.999998h-2z" />
      <path id="path146" d="m33 12h1v13h-1z" />
   </g>
   <g id="east-progress-left" class="ColorScheme-PositiveText" transform="matrix(-1 0 0 -.84615385 143 26.153845)" fill="currentColor" opacity=".61">
      <path id="path149" d="m31 12h2v13h-2z" style="" />
      <path id="path151" d="m33 12h1v13h-1z" style="" />
   </g>
   <g id="east-progress-center" transform="matrix(-1.0370294 0 0 -.84615385 145.18534 19.46923)" opacity=".31">
      <path id="path154" class="ColorScheme-PositiveText" d="m5.000186 4.1h27.0002v13h-27.0002z" fill="currentColor" />
   </g>
   <g id="east-progress-bottom" transform="matrix(-1.0769152 0 0 1 145.38456 -10)" opacity=".31">
      <path id="path157" transform="matrix(0 1 1 0 0 0)" d="m29 5h1v26.000191h-1z" fill="none" />
      <path id="path159" class="ColorScheme-PositiveText" transform="scale(1 -1)" d="m4.999985-28h26.000191v2h-26.000191z" fill="currentColor" />
      <path id="path161" class="ColorScheme-PositiveText" transform="scale(1 -1)" d="m5-29h26.000189v1h-26.000189z" fill="currentColor" />
   </g>
   <g id="east-progress-topleft" transform="matrix(0,-1,-1.499999,0,140.49997,36)" opacity=".61">
      <path id="path164" transform="matrix(0,-1,-1,0,0,0)" d="m-20.999994-35h2.000004v1h-2.000004z" fill="none" />
      <path id="path166" class="ColorScheme-PositiveText" d="m31 18.99999h3v2h-3z" fill="currentColor" />
   </g>
   <g id="east-progress-bottomleft" transform="matrix(-1.499999,0,0,1,159.99995,-2)" opacity=".61">
      <path id="path169" class="ColorScheme-PositiveText" d="m31.99999 18h1.999999v3h-1.999999z" fill="currentColor" />
      <path id="path171" transform="matrix(0,1,1,0,0,0)" d="m21 31.99999h1v1.785739h-1z" fill="none" />
   </g>
   <g id="east-progress-top" transform="matrix(1.0769152 0 0 -1 106.61561 31.000001)" opacity=".31">
      <path id="path174" class="ColorScheme-PositiveText" transform="scale(1 -1)" d="m4.999827-28h26.000193v2h-26.000193z" fill="currentColor" />
      <path id="path176" class="ColorScheme-PositiveText" transform="scale(1 -1)" d="m4.999827-29h26.000193v1h-26.000193z" fill="currentColor" />
      <path id="path178" transform="matrix(0 1 1 0 0 0)" d="m29.000008 4.999827h1v26.000191h-1z" fill="none" />
   </g>
   <g id="east-progress-topright" transform="matrix(1 0 0 -1 109 22.999999)" opacity=".31">
      <path id="path181" transform="scale(-1 1)" d="m-34 21h3v1h-3z" fill="none" />
      <path id="path183" class="ColorScheme-PositiveText" d="m31 18h2v2h-2z" fill="currentColor" />
      <path id="path185" class="ColorScheme-PositiveText" d="m34 18v3h-3v-1h2v-2z" fill="currentColor" />
   </g>
   <g id="east-progress-bottomright" transform="matrix(0 1 1 0 122 -15)" opacity=".31">
      <path id="path188" transform="scale(1 -1)" d="m34-21h1v3h-1z" fill="none" />
      <path id="path190" class="ColorScheme-PositiveText" d="m31 18h2v2h-2z" fill="currentColor" />
      <path id="path192" class="ColorScheme-PositiveText" d="m34 18v3h-3v-1h2v-2z" fill="currentColor" />
   </g>
   <g id="focus-left" transform="matrix(-1 0 0 -1 36 50)" opacity=".45"/>
   <g id="focus-right" transform="translate(0 12.999998)" opacity=".45"/>
   <g id="focus-center" class="ColorScheme-ButtonFocus" transform="matrix(.96296296 0 0 1 .185185 20.899999)" fill="currentColor" opacity=".45">
      <circle cx="18.5" cy="10.6" r="6.5" fill="currentColor" />
   </g>
   <g id="focus-top" class="ColorScheme-ButtonFocus" transform="matrix(1 0 0 -1 0 50.999999)" fill="currentColor" opacity=".90"/>
   <g id="focus-topleft" transform="matrix(0,-1.5,-1,0,23,73)" opacity=".90"/>
   <g id="focus-topright" transform="matrix(1,0,0,-1.4999995,0,53.499989)" opacity=".90"/>
   <g id="focus-bottom" class="ColorScheme-ButtonFocus" transform="matrix(-1 0 0 1 36 11.999998)" fill="currentColor" opacity=".45"/>
   <g id="focus-bottomleft" transform="matrix(-1 0 0 1 36 19.999999)" opacity=".45"/>
   <g id="focus-bottomright" transform="matrix(0 1 1 0 13 7)" opacity=".45"/>
   <g id="normal-left" transform="matrix(-1 0 0 -1 36 70.999998)" opacity=".15"/>
   <g id="normal-right" transform="translate(0 33.999997)" opacity=".15"/>
   <g id="normal-center" class="ColorScheme-Text" transform="matrix(.96296296 0 0 1 .185185 41.899998)" fill="currentColor" opacity=".15">
      <circle cx="18.5" cy="10.6" r="6.5" fill="currentColor" />
   </g>
   <g id="normal-top" class="ColorScheme-Text" transform="matrix(1 0 0 -1 0 71.999998)" fill="currentColor" opacity=".33">
   <g id="normal-topleft" transform="matrix(0,-1.5000002,-1,0,23,94.000008)" opacity=".33000004"/>
   <g id="normal-topright" transform="matrix(1,0,0,-1.5000002,0,74.500003)" opacity=".33000004"/>
   <g id="normal-bottom" class="ColorScheme-Text" transform="matrix(-1 0 0 1 36 32.999997)" fill="currentColor" opacity=".15"/>
   <g id="normal-bottomleft" transform="matrix(-1 0 0 1 36 40.999998)" opacity=".15"/>
   <g id="normal-bottomright" transform="matrix(0 1 1 0 13 27.999999)" opacity=".15"/>
   <g id="hover-left" transform="matrix(-1 0 0 -1 36 91.999994)" opacity=".34"/>
   <g id="hover-right" transform="translate(0 54.999993)" opacity=".34"/>
   <g id="hover-center" class="ColorScheme-ButtonHover" transform="matrix(.96296296 0 0 1 .185185 62.899994)" fill="currentColor" opacity=".34">
      <circle cx="18.5" cy="10.6" r="6.5" fill="currentColor" />
   </g>
   <g id="hover-top" class="ColorScheme-ButtonHover" transform="matrix(1 0 0 -1 0 92.999998)" fill="currentColor"/>
   <g id="hover-topleft" transform="matrix(0,-1.499997,-1,0,23,114.9999)"/>
   <g id="hover-topright" transform="matrix(1,0,0,-1.499997,0,95.499931)"/>
   <g id="hover-bottom" class="ColorScheme-ButtonHover" transform="matrix(-1 0 0 1 36 53.999993)" fill="currentColor" opacity=".34"/>
   <g id="hover-bottomleft" transform="matrix(-1 0 0 1 36 61.999994)" opacity=".34"/>
   <g id="hover-bottomright" transform="matrix(0 1 1 0 13 48.999995)" opacity=".34"/>
   
   <g id="attention-left" transform="matrix(-1 0 0 -1 36 112.99999)" opacity=".35">
      <path id="path783" class="ColorScheme-NeutralText" d="m31 12h2v13h-2z" fill="currentColor" />
      <path id="rect4949-9-2-9" class="ColorScheme-NeutralText" d="m33 12h1v13h-1z" fill="currentColor" />
      <path id="path786" d="m34 12h1v13h-1z" fill="none" />
   </g>
   <g id="attention-right" transform="translate(0 75.999993)" opacity=".35">
      <path id="path789" class="ColorScheme-NeutralText" d="m31 12h2v13h-2z" fill="currentColor" />
      <path id="path791" class="ColorScheme-NeutralText" d="m33 12h1v13h-1z" fill="currentColor" />
      <path id="path793" d="m34 12h1v13h-1z" fill="none" />
   </g>
   <g id="attention-center" class="ColorScheme-NeutralText" transform="matrix(.96296296 0 0 1 .185185 83.899994)" fill="currentColor" opacity=".35">
      <path id="path796" class="ColorScheme-NeutralText" d="m5 4.1h27v13h-27z" fill="currentColor" />
   </g>
   <g id="attention-top" class="ColorScheme-NeutralText" transform="matrix(1 0 0 -1 0 114)" fill="currentColor" opacity=".80">
      <path id="path799" transform="scale(1,-1)" d="m5-28h26v2h-26z" style="" />
      <path id="path801" transform="scale(1 -1)" d="m5-29h26v1h-26z" style="" />
   </g>
   <g id="attention-topleft" transform="matrix(0,-1.499995,-1,0,23,135.99983)" opacity=".80">
      <path id="rect4369-7-5-09-7-4-82" d="m32 21h2v1h-2z" fill="none" />
      <path id="path805" class="ColorScheme-NeutralText" d="m32 18h2v3h-2z" fill="currentColor" />
   </g>
   <g id="attention-topright" transform="matrix(1,0,0,-1.499995,0,116.49989)" opacity=".80">
      <path id="path808" transform="scale(1,-1)" d="m34-21h1v2h-1z" fill="none" />
      <path id="path810" class="ColorScheme-NeutralText" d="m31 19h3v2h-3z" fill="currentColor" />
   </g>
   <g id="attention-bottom" class="ColorScheme-NeutralText" transform="matrix(-1 0 0 1 36 74.999993)" fill="currentColor" opacity=".35">
      <path id="path813" transform="scale(1 -1)" d="m5-28h26v2h-26z" />
      <path id="path815" transform="scale(1 -1)" d="m5-29h26v1h-26z" />
   </g>
   <g id="attention-bottomleft" transform="matrix(-1 0 0 1 36 82.999994)" opacity=".35">
      <path id="path818" transform="scale(1 -1)" d="m34-21h1v3h-1z" fill="none" />
      <path id="path820" class="ColorScheme-NeutralText" d="m31 18h2v2h-2z" fill="currentColor" />
      <path id="path822" class="ColorScheme-NeutralText" d="m34 18v3h-3v-1h2v-2z" fill="currentColor" />
   </g>
   <g id="attention-bottomright" transform="matrix(0 1 1 0 13 69.999995)" opacity=".35">
      <path id="path825" transform="scale(1 -1)" d="m31-22h3v1h-3z" fill="none" />
      <path id="path827" class="ColorScheme-NeutralText" d="m31 18h2v2h-2z" fill="currentColor" />
      <path id="path829" class="ColorScheme-NeutralText" d="m34 18v3h-3v-1h2v-2z" fill="currentColor" />
   </g>
   <g id="north-attention-left" transform="matrix(-1 0 0 1 72 75.999993)" opacity=".35">
      <path id="path832" class="ColorScheme-NeutralText" d="m31 12h2v13h-2z" fill="currentColor" />
      <path id="rect4949-9-2-9-0" class="ColorScheme-NeutralText" d="m33 12h1v13h-1z" fill="currentColor" />
      <path id="rect4951-3-2-7-1" d="m34 12h1v13h-1z" fill="none" />
   </g>
   <g id="north-attention-right" transform="matrix(1 0 0 -1 36 113)" opacity=".35">
      <path id="path837" class="ColorScheme-NeutralText" d="m31 12h2v13h-2z" fill="currentColor" />
      <path id="path839" class="ColorScheme-NeutralText" d="m33 12h1v13h-1z" fill="currentColor" />
      <path id="path841" d="m34 12h1v13h-1z" fill="none" />
   </g>
   <g id="north-attention-center" class="ColorScheme-NeutralText" transform="matrix(.96296296 0 0 -1 36.185185 105.1)" fill="currentColor" opacity=".35">
      <path id="path844" class="ColorScheme-NeutralText" d="m5 4.1h27v13h-27z" fill="currentColor" />
   </g>
   <g id="north-attention-bottom" class="ColorScheme-NeutralText" transform="translate(36 74.999993)" fill="currentColor" opacity=".80">
      <path id="path847" transform="scale(1,-1)" d="m5-28h26v2h-26z" style="" />
      <path id="path849" transform="scale(1 -1)" d="m5-29h26v1h-26z" style="" />
   </g>
   <g id="north-attention-bottomleft" transform="matrix(0,1.499997,-1,0,59,53.000096)" opacity=".80">
      <path id="rect4369-7-5-09-7-4-8" d="m32 21h2v1h-2z" fill="none" />
      <path id="path853" class="ColorScheme-NeutralText" d="m32 18h2v3h-2z" fill="currentColor" />
   </g>
   <g id="north-attention-bottomright" transform="matrix(1,0,0,1.499997,36,72.500057)" opacity=".80">
      <path id="path856" transform="scale(1,-1)" d="m34-21h1v2h-1z" fill="none" />
      <path id="path858" class="ColorScheme-NeutralText" d="m31 19h3v2h-3z" fill="currentColor" />
   </g>
   <g id="north-attention-top" class="ColorScheme-NeutralText" transform="matrix(-1 0 0 -1 72 113.99999)" fill="currentColor" opacity=".35">
      <path id="path861" transform="scale(1 -1)" d="m5-28h26v2h-26z" />
      <path id="path863" transform="scale(1 -1)" d="m5-29h26v1h-26z" />
   </g>
   <g id="north-attention-topleft" transform="matrix(-1 0 0 -1 72 105.99999)" opacity=".35">
      <path id="path866" transform="scale(1 -1)" d="m34-21h1v3h-1z" fill="none" />
      <path id="path868" class="ColorScheme-NeutralText" d="m31 18h2v2h-2z" fill="currentColor" />
      <path id="path870" class="ColorScheme-NeutralText" d="m34 18v3h-3v-1h2v-2z" fill="currentColor" />
   </g>
   <g id="north-attention-topright" transform="matrix(0 -1 1 0 49 118.99999)" opacity=".35">
      <path id="path873" transform="scale(1 -1)" d="m31-22h3v1h-3z" fill="none" />
      <path id="path875" class="ColorScheme-NeutralText" d="m31 18h2v2h-2z" fill="currentColor" />
      <path id="path877" class="ColorScheme-NeutralText" d="m34 18v3h-3v-1h2v-2z" fill="currentColor" />
   </g>
   <g id="west-attention-left" class="ColorScheme-NeutralText" transform="matrix(-1 0 0 .84615385 107 78.846147)" fill="currentColor" opacity=".35">
      <path id="path880" d="m31 12h2v13h-2z" />
      <path id="path882" d="m33 12h1v13h-1z" />
   </g>
   <g id="west-attention-right" class="ColorScheme-NeutralText" transform="matrix(1 0 0 -.84615385 73 110.15384)" fill="currentColor" opacity=".80">
      <path id="rect4945-8-1-3-0" d="m31 12h2v13h-2z" style="" />
      <path id="path886" d="m33 12h1v13h-1z" style="" />
   </g>
   <g id="west-attention-center" class="ColorScheme-NeutralText" transform="matrix(1.0370294 0 0 -.84615385 70.814663 103.46923)" fill="currentColor" opacity=".35">
      <path id="rect4957-0-5-7-4" class="ColorScheme-NeutralText" d="m5.000183 4.1h27.0002v13h-27.0002z" fill="currentColor" />
   </g>
   <g id="west-attention-bottom" transform="matrix(1.0769152 0 0 1 70.615439 73.999995)" opacity=".35">
      <path id="rect4369-7-5-0-5-9-7-0-5-1-0-2-0" transform="matrix(0 1 1 0 0 0)" d="m29 5h1v26.000191h-1z" fill="none" />
      <path id="path892" class="ColorScheme-NeutralText" transform="scale(1 -1)" d="m5-28h26.000191v2h-26.000191z" fill="currentColor" />
      <path id="path894" class="ColorScheme-NeutralText" transform="scale(1 -1)" d="m5-29h26.000191v1h-26.000191z" fill="currentColor" />
   </g>
   <g id="west-attention-topright" transform="matrix(0,-1,1.4999983,0,75.500042,120)" opacity=".80">
      <path id="path897" transform="matrix(0,-1,-1,0,0,0)" d="m-20.999994-35h1.999999v1h-1.999999z" fill="none" />
      <path id="path899" class="ColorScheme-NeutralText" d="m31 18.999994h3v2h-3z" fill="currentColor" />
   </g>
   <g id="west-attention-bottomright" transform="matrix(1.4999983,0,0,1,56.000065,81.999994)" opacity=".80">
      <path id="path902" class="ColorScheme-NeutralText" d="m31.999994 18h2.000005v3h-2.000005z" fill="currentColor" />
      <path id="path904" transform="matrix(0,1,1,0,0,0)" d="m21 31.999994h1v1.785735h-1z" fill="none" />
   </g>
   <g id="west-attention-top" transform="matrix(-1.0769152 0 0 -1 109.38438 115)" opacity=".35">
      <path id="rect4997-2-6-2-7-7-77" class="ColorScheme-NeutralText" transform="scale(1 -1)" d="m4.999818-28h26.000191v2h-26.000191z" fill="currentColor" />
      <path id="path908" class="ColorScheme-NeutralText" transform="scale(1 -1)" d="m4.999818-29h26.000191v1h-26.000191z" fill="currentColor" />
      <path id="path910" transform="matrix(0 1 1 0 0 0)" d="m29.000008 4.999827h1v26.000191h-1z" fill="none" />
   </g>
   <g id="west-attention-topleft" transform="matrix(-1 0 0 -1 107 106.99999)" opacity=".35">
      <path id="path913" transform="scale(-1 1)" d="m-34 21h3v1h-3z" fill="none" />
      <path id="path915" class="ColorScheme-NeutralText" d="m30.99999 18h1.999999v2h-1.999999z" fill="currentColor" />
      <path id="path917" class="ColorScheme-NeutralText" d="m33.99999 18v3h-3v-1h2l-1e-6 -2z" fill="currentColor" />
   </g>
   <g id="west-attention-bottomleft" transform="matrix(0 1 -1 0 94 68.999994)" opacity=".35">
      <path id="rect4369-7-5-0-5-9-7-0-5-1-0-2-07" transform="scale(1 -1)" d="m34-21h1v3h-1z" fill="none" />
      <path id="path921" class="ColorScheme-NeutralText" d="m31 18h2v2h-2z" fill="currentColor" />
      <path id="path923" class="ColorScheme-NeutralText" d="m34 18v3h-3v-1h2v-2z" fill="currentColor" />
   </g>
   <g id="east-attention-right" class="ColorScheme-NeutralText" transform="matrix(1 0 0 .84615385 109 78.846146)" fill="currentColor" opacity=".35">
      <path id="path926" d="m31 12h2v12.999998h-2z" />
      <path id="path928" d="m33 12h1v13h-1z" />
   </g>
   <g id="east-attention-left" class="ColorScheme-NeutralText" transform="matrix(-1 0 0 -.84615385 143 110.15384)" fill="currentColor" opacity=".80">
      <path id="path931" d="m31 12h2v13h-2z" style="" />
      <path id="path933" d="m33 12h1v13h-1z" style="" />
   </g>
   <g id="east-attention-center" class="ColorScheme-NeutralText" transform="matrix(-1.0370294 0 0 -.84615385 145.18534 103.46923)" fill="currentColor" opacity=".35">
      <path id="path936" class="ColorScheme-NeutralText" d="m5.000186 4.1h27.0002v13h-27.0002z" fill="currentColor" />
   </g>
   <g id="east-attention-bottom" transform="matrix(-1.0769152 0 0 1 145.38456 73.999995)" opacity=".35">
      <path id="path939" transform="matrix(0 1 1 0 0 0)" d="m29 5h1v26.000191h-1z" fill="none" />
      <path id="rect4997-3-9-4-2-3" class="ColorScheme-NeutralText" transform="scale(1 -1)" d="m4.999985-28h26.000191v2h-26.000191z" fill="currentColor" />
      <path id="path942" class="ColorScheme-NeutralText" transform="scale(1 -1)" d="m5-29h26.000189v1h-26.000189z" fill="currentColor" />
   </g>
   <g id="east-attention-topleft" transform="matrix(0,-1,-1.4999988,0,140.49996,120)" opacity=".80">
      <path id="path945" transform="matrix(0,-1,-1,0,0,0)" d="m-20.999994-35h2.000004v1h-2.000004z" fill="none" />
      <path id="rect5003-5-7-5-0-9-9" class="ColorScheme-NeutralText" d="m31 18.99999h3v2h-3z" fill="currentColor" />
   </g>
   <g id="east-attention-bottomleft" transform="matrix(-1.4999988,0,0,1,159.99995,81.999994)" opacity=".80">
      <path id="path949" class="ColorScheme-NeutralText" d="m31.99999 18h1.999999v3h-1.999999z" fill="currentColor" />
      <path id="path951" transform="matrix(0,1,1,0,0,0)" d="m21 31.99999h1v1.785739h-1z" fill="none" />
   </g>
   <g id="east-attention-top" transform="matrix(1.0769152 0 0 -1 106.61561 115)" opacity=".35">
      <path id="path954" class="ColorScheme-NeutralText" transform="scale(1 -1)" d="m4.999827-28h26.000193v2h-26.000193z" fill="currentColor" />
      <path id="path956" class="ColorScheme-NeutralText" transform="scale(1 -1)" d="m4.999827-29h26.000193v1h-26.000193z" fill="currentColor" />
      <path id="path958" transform="matrix(0 1 1 0 0 0)" d="m29.000008 4.999827h1v26.000191h-1z" fill="none" />
   </g>
   <g id="east-attention-topright" transform="matrix(1 0 0 -1 109 107)" opacity=".35">
      <path id="path961" transform="scale(-1 1)" d="m-34 21h3v1h-3z" fill="none" />
      <path id="rect5003-5-6-8-9-3-4-9" class="ColorScheme-NeutralText" d="m31 18h2v2h-2z" fill="currentColor" />
      <path id="path964" class="ColorScheme-NeutralText" d="m34 18v3h-3v-1h2v-2z" fill="currentColor" />
   </g>
   <g id="east-attention-bottomright" transform="matrix(0 1 1 0 122 68.999995)" opacity=".35">
      <path id="path967" transform="scale(1 -1)" d="m34-21h1v3h-1z" fill="none" />
      <path id="rect5003-5-6-8-5-7-4-2-2" class="ColorScheme-NeutralText" d="m31 18h2v2h-2z" fill="currentColor" />
      <path id="path3643-6-3-5-7-8" class="ColorScheme-NeutralText" d="m34 18v3h-3v-1h2v-2z" fill="currentColor" />
   </g>
   <g id="minimized-left" transform="matrix(-1 0 0 -1 36 134)" opacity=".08">
      <path id="path972" class="ColorScheme-Text" d="m31 12h2v13h-2z" fill="currentColor" />
      <path id="path974" class="ColorScheme-Text" d="m33 12h1v13h-1z" fill="currentColor" />
      <path id="path976" d="m34 12h1v13h-1z" fill="none" />
   </g>
   <g id="minimized-right" transform="translate(0 96.999992)" opacity=".08">
      <path id="path979" class="ColorScheme-Text" d="m31 12h2v13h-2z" fill="currentColor" />
      <path id="path981" class="ColorScheme-Text" d="m33 12h1v13h-1z" fill="currentColor" />
      <path id="path983" d="m34 12h1v13h-1z" fill="none" />
   </g>
   <g id="minimized-center" class="ColorScheme-Text" transform="matrix(.96296296 0 0 1 .185185 104.89999)" fill="currentColor" opacity=".08">
      <path id="path986" class="ColorScheme-Text" d="m5 4.1h27v13h-27z" fill="currentColor" />
   </g>
   <g id="minimized-top" class="ColorScheme-Text" transform="matrix(1 0 0 -1 0 135)" fill="currentColor" opacity=".08">
      <path id="path989" transform="scale(1 -1)" d="m5-28h26v1.999988h-26z" />
      <path id="path991" transform="scale(1 -1)" d="m5-29h26v1h-26z" />
   </g>
   <g id="minimized-topleft" transform="matrix(0 -1 -1 0 23 140)" opacity=".08">
      <path id="path994" d="m32 21h2v1h-2z" fill="none" />
      <path id="path996" class="ColorScheme-Text" d="m31.00001 18h2.99999v3h-2.99999z" fill="currentColor" />
   </g>
   <g id="minimized-topright" transform="matrix(1 0 0 -1 0 127)" opacity=".08">
      <path id="path999" transform="scale(1 -1)" d="m34-21h1v2h-1z" fill="none" />
      <path id="path1001" class="ColorScheme-Text" d="m31 18.00001h3v2.99999h-3z" fill="currentColor" />
   </g>
   <g id="minimized-bottom" class="ColorScheme-Text" transform="matrix(-1 0 0 1 36 95.999992)" fill="currentColor" opacity=".08">
      <path id="path1004" transform="scale(1 -1)" d="m5-28h26v2h-26z" />
      <path id="path1006" transform="scale(1 -1)" d="m5-29h26v1h-26z" />
   </g>
   <g id="minimized-bottomleft" transform="matrix(-1 0 0 1 36 103.99999)" opacity=".08">
      <path id="path1009" transform="scale(1 -1)" d="m34-21h1v3h-1z" fill="none" />
      <path id="path1011" class="ColorScheme-Text" d="m31 18h2v2h-2z" fill="currentColor" />
      <path id="path1013" class="ColorScheme-Text" d="m34 18v3h-3v-1h2v-2z" fill="currentColor" />
   </g>
   <g id="minimized-bottomright" transform="matrix(0 1 1 0 13 90.999997)" opacity=".08">
      <path id="path1016" transform="scale(1 -1)" d="m31-22h3v1h-3z" fill="none" />
      <path id="path1018" class="ColorScheme-Text" d="m31 18h2v2h-2z" fill="currentColor" />
      <path id="path1020" class="ColorScheme-Text" d="m34 18v3h-3v-1h2v-2z" fill="currentColor" />
   </g>
   <g id="north-minimized-left" transform="matrix(-1 0 0 1 72 96.999992)" opacity=".08">
      <path id="path1023" class="ColorScheme-Text" d="m31 12h2v13h-2z" fill="currentColor" />
      <path id="path1025" class="ColorScheme-Text" d="m33 12h1v13h-1z" fill="currentColor" />
      <path id="path1027" d="m34 12h1v13h-1z" fill="none" />
   </g>
   <g id="north-minimized-right" transform="matrix(1 0 0 -1 36 134)" opacity=".08">
      <path id="path1030" class="ColorScheme-Text" d="m31 12h2v13h-2z" fill="currentColor" />
      <path id="path1032" class="ColorScheme-Text" d="m33 12h1v13h-1z" fill="currentColor" />
      <path id="path1034" d="m34 12h1v13h-1z" fill="none" />
   </g>
   <g id="north-minimized-center" class="ColorScheme-Text" transform="matrix(.96296296 0 0 -1 36.185185 126.1)" fill="currentColor" opacity=".08">
      <path id="path1037" class="ColorScheme-Text" d="m5 4.1h27v13h-27z" fill="currentColor" />
   </g>
   <g id="north-minimized-bottom" class="ColorScheme-Text" transform="translate(36 95.999992)" fill="currentColor" opacity=".08">
      <path id="path1040" transform="scale(1 -1)" d="m5-28h26v1.999993h-26z" />
      <path id="path1042" transform="scale(1 -1)" d="m5-29h26v1h-26z" />
   </g>
   <g id="north-minimized-bottomleft" transform="matrix(0 1 -1 0 59 90.999996)" opacity=".08">
      <path id="path1045" d="m32 21h2v1h-2z" fill="none" />
      <path id="path1047" class="ColorScheme-Text" d="m31.000004 18h2.999996v3h-2.999996z" fill="currentColor" />
   </g>
   <g id="north-minimized-bottomright" transform="translate(36 103.99999)" opacity=".08">
      <path id="path1050" transform="scale(1 -1)" d="m34-21h1v2h-1z" fill="none" />
      <path id="path1052" class="ColorScheme-Text" d="m31 18.00001h3v2.99999h-3z" fill="currentColor" />
   </g>
   <g id="north-minimized-top" class="ColorScheme-Text" transform="matrix(-1 0 0 -1 72 135)" fill="currentColor" opacity=".08">
      <path id="path1055" transform="scale(1 -1)" d="m5-28h26v2h-26z" />
      <path id="path1057" transform="scale(1 -1)" d="m5-29h26v1h-26z" />
   </g>
   <g id="north-minimized-topleft" transform="matrix(-1 0 0 -1 72 127)" opacity=".08">
      <path id="path1060" transform="scale(1 -1)" d="m34-21h1v3h-1z" fill="none" />
      <path id="path1062" class="ColorScheme-Text" d="m31 18h2v2h-2z" fill="currentColor" />
      <path id="path1064" class="ColorScheme-Text" d="m34 18v3h-3v-1h2v-2z" fill="currentColor" />
   </g>
   <g id="north-minimized-topright" transform="matrix(0 -1 1 0 49 140)" opacity=".08">
      <path id="path1067" transform="scale(1 -1)" d="m31-22h3v1h-3z" fill="none" />
      <path id="path1069" class="ColorScheme-Text" d="m31 18h2v2h-2z" fill="currentColor" />
      <path id="path1071" class="ColorScheme-Text" d="m34 18v3h-3v-1h2v-2z" fill="currentColor" />
   </g>
   <g id="west-minimized-left" class="ColorScheme-Text" transform="matrix(-1 0 0 .84615385 107 99.846152)" fill="currentColor" opacity=".08">
      <path id="path1074" d="m31 12h2v13h-2z" />
      <path id="path1076" d="m33 12h1v13h-1z" />
   </g>
   <g id="west-minimized-right" class="ColorScheme-Text" transform="matrix(1 0 0 -.84615385 73 131.15384)" fill="currentColor" opacity=".08">
      <path id="path1079" d="m31.000002 11.999996h1.999999v13.000002h-1.999999z" />
      <path id="path1081" d="m33 12h1v13h-1z" />
   </g>
   <g id="west-minimized-center" class="ColorScheme-Text" transform="matrix(1.0370294 0 0 -.84615385 70.814663 124.46923)" fill="currentColor" opacity=".08">
      <path id="path1084" class="ColorScheme-Text" d="m5.000183 4.1h27.0002v13h-27.0002z" fill="currentColor" />
   </g>
   <g id="west-minimized-bottom" transform="matrix(1.0769152 0 0 1 70.615439 94.999997)" opacity=".08">
      <path id="path1087" transform="matrix(0 1 1 0 0 0)" d="m29 5h1v26.000191h-1z" fill="none" />
      <path id="path1089" class="ColorScheme-Text" transform="scale(1 -1)" d="m5-28h26.000191v2h-26.000191z" fill="currentColor" />
      <path id="path1091" class="ColorScheme-Text" transform="scale(1 -1)" d="m5-29h26.000191v1h-26.000191z" fill="currentColor" />
   </g>
   <g id="west-minimized-topright" transform="matrix(0 -1 1 0 86.000014 141.00001)" opacity=".08">
      <path id="path1094" transform="matrix(0 -1 -1 0 0 0)" d="m-20.999994-35h1.999999v1h-1.999999z" fill="none" />
      <path id="path1096" class="ColorScheme-Text" d="m31.000006 17.999987h2.999994v3.000006h-2.999994z" fill="currentColor" />
   </g>
   <g id="west-minimized-bottomright" transform="translate(73.000005 102.99999)" opacity=".08">
      <path id="path1099" class="ColorScheme-Text" d="m30.999994 18.00001h3.000005v2.99999h-3.000005z" fill="currentColor" />
      <path id="path1101" transform="matrix(0 1 1 0 0 0)" d="m21 31.999994h1v1.785735h-1z" fill="none" />
   </g>
   <g id="west-minimized-top" transform="matrix(-1.0769152 0 0 -1 109.38438 136)" opacity=".08">
      <path id="path1104" class="ColorScheme-Text" transform="scale(1 -1)" d="m4.999818-28h26.000191v2h-26.000191z" fill="currentColor" />
      <path id="path1106" class="ColorScheme-Text" transform="scale(1 -1)" d="m4.999818-29h26.000191v1h-26.000191z" fill="currentColor" />
      <path id="path1108" transform="matrix(0 1 1 0 0 0)" d="m29.000008 4.999827h1v26.000191h-1z" fill="none" />
   </g>
   <g id="west-minimized-topleft" transform="matrix(-1 0 0 -1 107 128)" opacity=".08">
      <path id="path1111" transform="scale(-1 1)" d="m-34 21h3v1h-3z" fill="none" />
      <path id="path1113" class="ColorScheme-Text" d="m30.99999 18h1.999999v2h-1.999999z" fill="currentColor" />
      <path id="path1115" class="ColorScheme-Text" d="m33.99999 18v3h-3v-1h2l-1e-6 -2z" fill="currentColor" />
   </g>
   <g id="west-minimized-bottomleft" transform="matrix(0 1 -1 0 94 89.999996)" opacity=".08">
      <path id="path1118" transform="scale(1 -1)" d="m34-21h1v3h-1z" fill="none" />
      <path id="path1120" class="ColorScheme-Text" d="m31 18h2v2h-2z" fill="currentColor" />
      <path id="path1122" class="ColorScheme-Text" d="m34 18v3h-3v-1h2v-2z" fill="currentColor" />
   </g>
   <g id="east-minimized-right" class="ColorScheme-Text" transform="matrix(1 0 0 .84615385 109 99.846152)" fill="currentColor" opacity=".08">
      <path id="path1125" d="m31 12h2v12.999998h-2z" />
      <path id="path1127" d="m33 12h1v13h-1z" />
   </g>
   <g id="east-minimized-left" class="ColorScheme-Text" transform="matrix(-1 0 0 -.84615385 143 131.15384)" fill="currentColor" opacity=".08">
      <path id="path1130" d="m31 11.999992h2v13.000006h-2z" />
      <path id="path1132" d="m33 12h1v13h-1z" />
   </g>
   <g id="east-minimized-center" class="ColorScheme-Text" transform="matrix(-1.0370294 0 0 -.84615385 145.18534 124.46923)" fill="currentColor" opacity=".08">
      <path id="path1135" class="ColorScheme-Text" d="m5.000186 4.1h27.0002v13h-27.0002z" fill="currentColor" />
   </g>
   <g id="east-minimized-bottom" transform="matrix(-1.0769152 0 0 1 145.38456 94.999997)" opacity=".08">
      <path id="path1138" transform="matrix(0 1 1 0 0 0)" d="m29 5h1v26.000191h-1z" fill="none" />
      <path id="path1140" class="ColorScheme-Text" transform="scale(1 -1)" d="m4.999985-28h26.000191v2h-26.000191z" fill="currentColor" />
      <path id="path1142" class="ColorScheme-Text" transform="scale(1 -1)" d="m5-29h26.000189v1h-26.000189z" fill="currentColor" />
   </g>
   <g id="east-minimized-topleft" transform="matrix(0 -1 -1 0 129.99999 141)" opacity=".08">
      <path id="path1145" transform="matrix(0 -1 -1 0 0 0)" d="m-20.999994-35h2.000004v1h-2.000004z" fill="none" />
      <path id="path1147" class="ColorScheme-Text" d="m31 17.99999h3v3h-3z" fill="currentColor" />
   </g>
   <g id="east-minimized-bottomleft" transform="matrix(-1 0 0 1 142.99999 102.99999)" opacity=".08">
      <path id="path1150" class="ColorScheme-Text" d="m30.99999 18.00001h2.999999v2.99999h-2.999999z" fill="currentColor" />
      <path id="path1152" transform="matrix(0 1 1 0 0 0)" d="m21 31.99999h1v1.785739h-1z" fill="none" />
   </g>
   <g id="east-minimized-top" transform="matrix(1.0769152 0 0 -1 106.61561 136)" opacity=".08">
      <path id="path1155" class="ColorScheme-Text" transform="scale(1 -1)" d="m4.999827-28h26.000193v2h-26.000193z" fill="currentColor" />
      <path id="path1157" class="ColorScheme-Text" transform="scale(1 -1)" d="m4.999827-29h26.000193v1h-26.000193z" fill="currentColor" />
      <path id="path1159" transform="matrix(0 1 1 0 0 0)" d="m29.000008 4.999827h1v26.000191h-1z" fill="none" />
   </g>
   <g id="east-minimized-topright" transform="matrix(1 0 0 -1 109 128)" opacity=".08">
      <path id="path1162" transform="scale(-1 1)" d="m-34 21h3v1h-3z" fill="none" />
      <path id="path1164" class="ColorScheme-Text" d="m31 18h2v2h-2z" fill="currentColor" />
      <path id="path1166" class="ColorScheme-Text" d="m34 18v3h-3v-1h2v-2z" fill="currentColor" />
   </g>
   <g id="east-minimized-bottomright" transform="matrix(0 1 1 0 122 89.999997)" opacity=".08">
      <path id="path1169" transform="scale(1 -1)" d="m34-21h1v3h-1z" fill="none" />
      <path id="path1171" class="ColorScheme-Text" d="m31 18h2v2h-2z" fill="currentColor" />
      <path id="path1173" class="ColorScheme-Text" d="m34 18v3h-3v-1h2v-2z" fill="currentColor" />
   </g>
   <g id="group-expander-bottom" transform="matrix(1.2222222 0 0 1.2222222 -97 -16.777778)">
      <path id="path4927" d="m211.5 89.000002a4.4999957 4.5000003 0 0 0-4.5 4.5 4.4999957 4.5000003 0 0 0 4.5 4.5 4.4999957 4.5000003 0 0 0 4.5-4.5 4.4999957 4.5000003 0 0 0-4.5-4.5z" opacity=".25" />
      <path id="path4931" class="ColorScheme-ButtonFocus" d="m211.50001 89.818184a3.6818164 3.6818182 0 0 0-3.68182 3.681818 3.6818164 3.6818182 0 0 0 3.68182 3.681818 3.6818164 3.6818182 0 0 0 3.68182-3.681818 3.6818164 3.6818182 0 0 0-3.68182-3.681818z" fill="currentColor" />
      <path id="path4930" d="m210.67561 91.045464.00097 1.630631-1.63462.01145.007 1.626089 1.63908.0091-.006 1.634313 1.62575-.005.007-1.631618 1.63976-.000027v-1.632877h-1.64636l.0204-1.642077z" opacity=".25" />
      <path id="path4949" d="m211.08482 91.454555.00097 1.630633-1.63474.01145.007.807899 1.6392.0091-.006 1.634319.8077-.005.007-1.631624 1.63951-.000027v-.814687h-1.64611l.0204-1.642079z" fill="#fff" />
   </g>
   <g id="group-expander-left" transform="matrix(1.2222222 0 0 1.2222222 -74.999995 -16.777778)">
      <path id="path4934" d="m211.5 89.000002a4.4999957 4.5000003 0 0 0-4.5 4.5 4.4999957 4.5000003 0 0 0 4.5 4.5 4.4999957 4.5000003 0 0 0 4.5-4.5 4.4999957 4.5000003 0 0 0-4.5-4.5z" opacity=".25" />
      <path id="path4938" class="ColorScheme-ButtonFocus" d="m211.50001 89.818184a3.6818164 3.6818182 0 0 0-3.68182 3.681818 3.6818164 3.6818182 0 0 0 3.68182 3.681818 3.6818164 3.6818182 0 0 0 3.68182-3.681818 3.6818164 3.6818182 0 0 0-3.68182-3.681818z" fill="currentColor" />
      <path id="path4940" d="m210.67561 91.045464.00097 1.630631-1.63462.01145.007 1.626089 1.63908.0091-.006 1.634313 1.62575-.005.007-1.631618 1.63976-.000027v-1.632877h-1.64636l.0204-1.642077z" opacity=".25" />
      <path id="path4942" d="m211.08482 91.454555.00097 1.630633-1.63474.01145.007.807899 1.6392.0091-.006 1.634319.8077-.005.007-1.631624 1.63951-.000027v-.814687h-1.64611l.0204-1.642079z" fill="#fff" />
   </g>
   <g id="group-expander-top" transform="matrix(1.2222222 0 0 1.2222222 -97 1.222222)">
      <path id="path4946" d="m211.5 89.000002a4.4999957 4.5000003 0 0 0-4.5 4.5 4.4999957 4.5000003 0 0 0 4.5 4.5 4.4999957 4.5000003 0 0 0 4.5-4.5 4.4999957 4.5000003 0 0 0-4.5-4.5z" opacity=".25" />
      <path id="path4950" class="ColorScheme-ButtonFocus" d="m211.50001 89.818184a3.6818164 3.6818182 0 0 0-3.68182 3.681818 3.6818164 3.6818182 0 0 0 3.68182 3.681818 3.6818164 3.6818182 0 0 0 3.68182-3.681818 3.6818164 3.6818182 0 0 0-3.68182-3.681818z" fill="currentColor" />
      <path id="path4952" d="m210.67561 91.045464.00097 1.630631-1.63462.01145.007 1.626089 1.63908.0091-.006 1.634313 1.62575-.005.007-1.631618 1.63976-.000027v-1.632877h-1.64636l.0204-1.642077z" opacity=".25" />
      <path id="path4954" d="m211.08482 91.454555.00097 1.630633-1.63474.01145.007.807899 1.6392.0091-.006 1.634319.8077-.005.007-1.631624 1.63951-.000027v-.814687h-1.64611l.0204-1.642079z" fill="#fff" />
   </g>
   <g id="group-expander-right" transform="matrix(1.2222222 0 0 1.2222222 -74.999995 1.222222)">
      <path id="path4958" d="m211.5 89.000002a4.4999957 4.5000003 0 0 0-4.5 4.5 4.4999957 4.5000003 0 0 0 4.5 4.5 4.4999957 4.5000003 0 0 0 4.5-4.5 4.4999957 4.5000003 0 0 0-4.5-4.5z" opacity=".25" />
      <path id="path4962" class="ColorScheme-ButtonFocus" d="m211.50001 89.818184a3.6818164 3.6818182 0 0 0-3.68182 3.681818 3.6818164 3.6818182 0 0 0 3.68182 3.681818 3.6818164 3.6818182 0 0 0 3.68182-3.681818 3.6818164 3.6818182 0 0 0-3.68182-3.681818z" fill="currentColor" />
      <path id="path4964" d="m210.67561 91.045464.00097 1.630631-1.63462.01145.007 1.626089 1.63908.0091-.006 1.634313 1.62575-.005.007-1.631618 1.63976-.000027v-1.632877h-1.64636l.0204-1.642077z" opacity=".25" />
      <path id="path4966" d="m211.08482 91.454555.00097 1.630633-1.63474.01145.007.807899 1.6392.0091-.006 1.634319.8077-.005.007-1.631624 1.63951-.000027v-.814687h-1.64611l.0204-1.642079z" fill="#fff" />
   </g>
   <rect id="normal-hint-top-margin" x="16" y="43" width="4" height="4" fill="#f0f" />
   <rect id="normal-hint-bottom-margin" x="2" y="51" width="4" height="4" fill="#f0f" />
   <rect id="normal-hint-right-margin" x="30" y="51" width="4" height="4" fill="#f0f" />
   <rect id="normal-hint-left-margin" x="16" y="58" width="4" height="4" fill="#f0f" />
</svg>
